<?xml version="1.0" encoding="UTF-8"?>
<svg id="Layer_1" xmlns="http://www.w3.org/2000/svg" version="1.1" viewBox="0 0 1080 1080">
  <!-- Generator: Adobe Illustrator 30.2.1, SVG Export Plug-In . SVG Version: 2.1.1 Build 1)  -->
  <path d="M313.36,429.79c12.68,12.54,22.63,27.15,29.59,43.42,7.21,16.86,10.86,34.75,10.86,53.19s-3.66,36.33-10.86,53.19c-6.96,16.27-16.91,30.88-29.59,43.42-4.6,4.56-9.49,8.75-14.62,12.58,51.13-28.42,96.7-65.48,134.66-109.19-37.96-43.71-83.53-80.77-134.66-109.19,5.14,3.83,10.02,8.03,14.62,12.58h0Z" fill="#14e8c9"/>
  <path d="M67.57,606.68c-2.4,7.41-5.13,14.73-8.22,21.95-10.7,25.02-25.1,48-42.91,68.54,12.59.94,25.3,1.43,38.13,1.43,70.66,0,137.88-14.53,198.8-40.72-12.19,3.42-24.8,5.15-37.67,5.15-24.13,0-51.49-6.57-81.33-19.53-21.06-9.15-43.51-21.52-66.81-36.82h0Z" fill="#14e8c9"/>
  <path d="M59.36,424.17c3.16,7.39,5.94,14.89,8.39,22.48,23.79-15.51,46.57-28.05,67.79-37.31,29.76-12.98,56.73-19.57,80.16-19.57,12.87,0,25.49,1.73,37.68,5.15-60.92-26.19-128.14-40.72-198.81-40.72-12.83,0-25.55.49-38.13,1.43,17.81,20.54,32.22,43.52,42.91,68.54Z" fill="#14e8c9"/>
  <path d="M54.18,570.99c2.75-14.45,4.2-29.36,4.2-44.58s-1.42-29.83-4.11-44.15C21.89,505.63-.23,525.9,0,526.4c.36.79,22.17,21.18,54.17,44.58Z" fill="#14e8c9"/>
  <path d="M80.22,526.4c0,19.81-2.2,39.3-6.55,58.29,42.26,28.49,95.91,56.72,142.04,56.72,64.2,0,116.25-51.49,116.25-115s-52.05-115-116.25-115c-44.82,0-99.04,28.59-141.91,57.26,4.27,18.82,6.43,38.12,6.43,57.75h0ZM273.43,526.4c0,31.44-25.76,56.92-57.53,56.92s-57.53-25.48-57.53-56.92,25.76-56.92,57.53-56.92,57.53,25.49,57.53,56.92Z" fill="#14e8c9"/>
  <path d="M831.69,309.08c66.98,0,121.29,54.3,121.29,121.28,0,93.3-120.01,225.64-121.29,225.06-1.99-.91-121.28-128.72-121.28-225.06,0-66.98,54.3-121.28,121.28-121.28ZM831.69,481.46c28.33,0,51.3-22.97,51.3-51.3s-22.97-51.3-51.3-51.3-51.3,22.97-51.3,51.3,22.97,51.3,51.3,51.3Z" fill="#14e8c9"/>
  <path d="M605.19,274.42c-129.55-73.55-299.67-75.81-453.01,0v31.75M605.19,854.48c-129.55-73.55-299.67-75.81-453.01,0v-93.91" fill="none" stroke="#14e8c9" stroke-linecap="round" stroke-linejoin="round" stroke-width="10"/>
  <path d="M605.18,854.48c130.6-76.52,307.35-75.1,453.01,0V274.42c-129.55-73.55-299.67-75.81-453.01,0" fill="none" stroke="#14e8c9" stroke-linecap="round" stroke-linejoin="round" stroke-width="10"/>
  <path d="M750.29,671.45c52.34,26.99,115.86,27.5,162.79,0" fill="none" stroke="#14e8c9" stroke-linecap="round" stroke-linejoin="round" stroke-width="31.8"/>
  <path d="M605.18,854.48V276.51" fill="none" stroke="#14e8c9" stroke-miterlimit="31.76" stroke-width="10"/>
</svg>